<svg
   width="33.000011"
   height="33.00005"
   viewBox="0 0 33.000011 33.00005"
   fill="none"
   version="1.1"
   xmlns="http://www.w3.org/2000/svg">
  <path d="m 16.799988,0.300049 c -2.47932,0 -4.5,2.0206392 -4.5,4.5 0,2.4793433 2.020677,4.4999999 4.5,4.5 2.479323,0 4.5,-2.0206567 4.5,-4.5 0,-2.4793608 -2.020679,-4.5 -4.5,-4.5 z m 0,1 c 1.938871,0 3.5,1.5610897 3.5,3.5 0,1.9388879 -1.561131,3.5 -3.5,3.5 -1.938868,0 -3.5,-1.5611121 -3.5,-3.5 0,-1.9389103 1.561129,-3.5 3.5,-3.5 z m -2.400391,11.798828 c -0.742899,0 -1.125265,-0.0014 -1.476562,0.0332 -3.2729263,0.32238 -5.8690477,2.918487 -6.1914064,6.191407 -0.034579,0.351285 -0.033203,0.733564 -0.033203,1.476562 a 0.50005,0.50005 0 0 0 0.5,0.5 H 26.399597 a 0.50005,0.50005 0 0 0 0.5,-0.5 c 0,-0.742998 0.0014,-1.125277 -0.0332,-1.476562 -0.322379,-3.272917 -2.918489,-5.869027 -6.191406,-6.191407 -0.351286,-0.03458 -0.733564,-0.0332 -1.476563,-0.0332 z m 0,1 h 4.798828 c 0.742999,0 1.104394,0.0023 1.378907,0.0293 2.804271,0.276219 5.01675,2.488698 5.292968,5.292969 0.01722,0.174977 0.01686,0.557181 0.01953,0.878906 H 7.7081911 c 0.00267,-0.321725 0.00231,-0.703929 0.019531,-0.878906 0.2762001,-2.804269 2.4886876,-5.01675 5.2929686,-5.292969 0.274503,-0.02702 0.636007,-0.0293 1.378906,-0.0293 z m 16.025391,4.429688 a 0.5,0.5 0 0 0 -0.445313,0.226562 0.5,0.5 0 0 0 0.148438,0.691406 c 1.444438,0.929916 2.171875,1.951837 2.171875,2.953125 0,0.714759 -0.357985,1.423752 -1.101563,2.126954 -0.743577,0.7032 -1.86448,1.370793 -3.271484,1.933593 -2.769825,1.107931 -6.641167,1.813936 -10.923828,1.835938 l -3.849609,-3.84961 a 0.5,0.5 0 0 0 -0.707032,0 0.5,0.5 0 0 0 0,0.707032 l 3.123047,3.123047 C 11.698058,28.156025 8.2171243,27.478625 5.6710817,26.460205 4.2640815,25.897405 3.1431702,25.229812 2.3995974,24.526612 1.6560245,23.823411 1.299988,23.114418 1.299988,22.399658 c 0,-1.001312 0.725406,-2.023213 2.1699219,-2.953125 A 0.5,0.5 0 0 0 3.6203005,18.755127 0.5,0.5 0 0 0 3.3058474,18.53833 0.5,0.5 0 0 0 2.9288942,18.60669 c -1.598258,1.028884 -2.6289062,2.318484 -2.6289062,3.792968 0,1.052536 0.53639732,2.025351 1.4121094,2.853516 0.8757121,0.828165 2.099465,1.541347 3.5878906,2.136719 2.710937,1.084377 6.316905,1.771476 10.316406,1.886719 l -3.169922,3.169921 a 0.5,0.5 0 0 0 0,0.707032 0.5,0.5 0 0 0 0.707032,0 l 3.857421,-3.857422 c 4.387664,-0.02248 8.357643,-0.734463 11.28711,-1.90625 1.488428,-0.595372 2.712173,-1.308554 3.58789,-2.136719 0.875717,-0.828164 1.414063,-1.800979 1.414063,-2.853516 0,-1.474507 -1.032703,-2.764088 -2.630859,-3.792968 a 0.5,0.5 0 0 0 -0.244141,-0.07813 z" />
</svg>
