<?xml version="1.0" encoding="UTF-8" standalone="no"?>
<svg
   width="34.333355"
   height="32.666626"
   viewBox="0 0 34.333355 32.666626"
   fill="none"
   version="1.1"
   xmlns="http://www.w3.org/2000/svg">
  <path
     d="m 17.166016,21.666016 a 0.5,0.5 0 0 0 -0.5,0.5 V 28 c 0,1.42082 1.119724,2.593059 2.71875,3.392578 1.599025,0.799519 3.74653,1.273438 6.115234,1.273438 2.368753,0 4.516196,-0.473919 6.115234,-1.273438 C 33.214273,30.593059 34.333984,29.42082 34.333984,28 v -5.833984 a 0.5,0.5 0 0 0 -0.5,-0.5 0.5,0.5 0 0 0 -0.5,0.5 V 28 c 0,0.880378 -0.747003,1.789517 -2.164062,2.498047 -1.417059,0.708529 -3.43628,1.167969 -5.669922,1.167969 -2.233591,0 -4.252875,-0.45944 -5.669922,-1.167969 C 18.413031,29.789518 17.666016,28.880378 17.666016,28 v -5.833984 a 0.5,0.5 0 0 0 -0.5,-0.5 z m 0,-5.832032 a 0.5,0.5 0 0 0 -0.5,0.5 v 5.832032 c 0,1.420781 1.119726,2.595026 2.71875,3.394531 1.599023,0.799505 3.74653,1.273437 6.115234,1.273437 2.368753,0 4.516198,-0.473932 6.115234,-1.273437 1.599037,-0.799505 2.71875,-1.97375 2.71875,-3.394531 v -5.832032 a 0.5,0.5 0 0 0 -0.5,-0.5 0.5,0.5 0 0 0 -0.5,0.5 v 5.832032 c 0,0.880316 -0.747001,1.791481 -2.164062,2.5 -1.417061,0.708518 -3.43628,1.167968 -5.669922,1.167968 -2.233591,0 -4.252873,-0.45945 -5.669922,-1.167968 -1.417048,-0.708519 -2.164062,-1.619684 -2.164062,-2.5 v -5.832032 a 0.5,0.5 0 0 0 -0.5,-0.5 z M 25.5,11.666016 c -2.368704,0 -4.516209,0.473918 -6.115234,1.273437 -1.599026,0.799519 -2.71875,1.973711 -2.71875,3.394531 0,1.420782 1.119726,2.593073 2.71875,3.392578 C 20.983789,20.526068 23.131296,21 25.5,21 c 2.368753,0 4.516198,-0.473933 6.115234,-1.273438 1.599037,-0.799504 2.71875,-1.971796 2.71875,-3.392578 0,-1.42082 -1.119711,-2.595012 -2.71875,-3.394531 C 30.016196,12.139934 27.868753,11.666016 25.5,11.666016 Z m 0,1 c 2.233642,0 4.252863,0.459439 5.669922,1.167968 1.417059,0.70853 2.164062,1.619623 2.164062,2.5 0,0.880316 -0.747001,1.789529 -2.164062,2.498047 C 29.752861,19.54055 27.733642,20 25.5,20 23.266409,20 21.247127,19.54055 19.830078,18.832031 18.41303,18.123513 17.666016,17.2143 17.666016,16.333984 c 0,-0.880377 0.747015,-1.79147 2.164062,-2.5 1.417047,-0.708529 3.436331,-1.167968 5.669922,-1.167968 z m -25,9 a 0.5,0.5 0 0 0 -0.5,0.5 V 28 c 0,1.420817 1.1177717,2.593058 2.7167969,3.392578 1.5990251,0.79952 3.7484442,1.273438 6.1171875,1.273438 2.3687146,0 4.5162066,-0.473919 6.1152346,-1.273438 C 16.548247,30.593059 17.666016,29.42082 17.666016,28 v -5.833984 a 0.5,0.5 0 0 0 -0.5,-0.5 0.5,0.5 0 0 0 -0.5,0.5 V 28 c 0,0.880378 -0.747014,1.789518 -2.164063,2.498047 -1.417049,0.708529 -3.434367,1.167969 -5.6679686,1.167969 -2.2336322,0 -4.2528771,-0.45944 -5.6699219,-1.167969 C 1.7470177,29.789518 1,28.880381 1,28 v -5.833984 a 0.5,0.5 0 0 0 -0.5,-0.5 z m 0,-5.832032 a 0.5,0.5 0 0 0 -0.5,0.5 v 5.832032 c 0,1.420778 1.1177735,2.595025 2.7167969,3.394531 1.5990233,0.799505 3.7484442,1.273437 6.1171875,1.273437 2.3687146,0 4.5162086,-0.473932 6.1152346,-1.273437 1.599026,-0.799505 2.716797,-1.97375 2.716797,-3.394531 v -5.832032 a 0.5,0.5 0 0 0 -0.5,-0.5 0.5,0.5 0 0 0 -0.5,0.5 v 5.832032 c 0,0.880316 -0.747012,1.791481 -2.164063,2.5 -1.417051,0.708518 -3.434367,1.167968 -5.6679686,1.167968 -2.2336322,0 -4.2528753,-0.45945 -5.6699219,-1.167968 C 1.7470159,23.957498 1,23.046335 1,22.166016 v -5.832032 a 0.5,0.5 0 0 0 -0.5,-0.5 z M 0.5,10 A 0.5,0.5 0 0 0 0,10.5 v 5.833984 c 0,1.420817 1.1177717,2.593059 2.7167969,3.392578 C 4.315822,20.526082 6.4652411,21 8.8339844,21 c 2.3687146,0 4.5162066,-0.473918 6.1152346,-1.273438 1.599028,-0.799519 2.716797,-1.971758 2.716797,-3.392578 V 10.5 a 0.5,0.5 0 0 0 -0.5,-0.5 0.5,0.5 0 0 0 -0.5,0.5 v 5.833984 c 0,0.880378 -0.747014,1.789518 -2.164063,2.498047 C 13.084904,19.540561 11.067586,20 8.8339844,20 6.6003522,20 4.5811073,19.54056 3.1640625,18.832031 1.7470177,18.123502 1,17.214365 1,16.333984 V 10.5 A 0.5,0.5 0 0 0 0.5,10 Z m 0,-5.8339844 a 0.5,0.5 0 0 0 -0.5,0.5 V 10.5 c 0,1.420817 1.1177717,2.593058 2.7167969,3.392578 1.5990251,0.79952 3.7484442,1.273438 6.1171875,1.273438 2.3687146,0 4.5162066,-0.473919 6.1152346,-1.273438 C 16.548247,13.093059 17.666016,11.92082 17.666016,10.5 V 4.6660156 a 0.5,0.5 0 0 0 -0.5,-0.5 0.5,0.5 0 0 0 -0.5,0.5 V 10.5 c 0,0.880378 -0.747014,1.789518 -2.164063,2.498047 -1.417049,0.708529 -3.434367,1.167969 -5.6679686,1.167969 -2.2336322,0 -4.2528771,-0.45944 -5.6699219,-1.167969 C 1.7470177,12.289518 1,11.380381 1,10.5 V 4.6660156 a 0.5,0.5 0 0 0 -0.5,-0.5 z M 8.8339844,0 C 6.4652416,0 4.3158217,0.47392428 2.7167969,1.2734375 1.117772,2.0729507 0,3.2452066 0,4.6660156 c 0,1.4208091 1.117772,2.595017 2.7167969,3.3945313 1.5990248,0.7995142 3.7484446,1.2734375 6.1171875,1.2734375 2.3687136,0 4.5162066,-0.4739238 6.1152346,-1.2734375 1.599027,-0.7995138 2.716797,-1.973719 2.716797,-3.3945313 0,-1.4208122 -1.11777,-2.5930654 -2.716797,-3.3925781 C 13.350191,0.47392478 11.202698,0 8.8339844,0 Z m 0,1 c 2.2336016,0 4.2509196,0.459445 5.6679686,1.1679688 1.41705,0.7085237 2.164063,1.6176814 2.164063,2.4980468 0,0.8803655 -0.747013,1.7914753 -2.164063,2.5 -1.417049,0.7085247 -3.434367,1.1679688 -5.6679686,1.1679688 -2.2336325,0 -4.2528767,-0.4594446 -5.6699219,-1.1679688 C 1.7470173,6.4574914 1,5.5463842 1,4.6660156 1,3.785647 1.7470174,2.876492 3.1640625,2.1679688 4.5811076,1.4594455 6.6003517,1 8.8339844,1 Z" />
</svg>
