<?xml version="1.0" encoding="UTF-8" standalone="no"?>
<svg
   width="20"
   height="19"
   viewBox="0 0 20 19"
   fill="none"
   version="1.1"
   xmlns="http://www.w3.org/2000/svg">
  <path
     d="M 3.9492188,0 C 1.7681409,0 0,1.7635822 0,3.9375 0,6.1105178 1.7683609,7.8730469 3.9492188,7.8730469 6.1300766,7.8730469 7.8984375,6.1105178 7.8984375,3.9375 7.8984375,1.7635822 6.1302866,0 3.9492188,0 Z m 0,1.5078125 c 1.3455486,0 2.4375,1.0881188 2.4375,2.4296875 0,1.3405787 -1.0920814,2.4277344 -2.4375,2.4277344 -1.3454187,0 -2.4375,-1.0871557 -2.4375,-2.4277344 0,-1.3415687 1.0919513,-2.4296875 2.4375,-2.4296875 z m 7.6152342,1.6757813 -0.101562,0.00586 c -0.3691,0.04991 -0.654297,0.3664773 -0.654297,0.7480469 0,0.4162596 0.33816,0.7539063 0.755859,0.7539062 h 7.679688 l 0.101562,-0.00781 C 19.714803,4.6336838 20,4.3190696 20,3.9375 20,3.5212404 19.66184,3.1835937 19.244141,3.1835938 Z m 4.486328,7.9453122 c -2.181298,0 -3.949219,1.761749 -3.949219,3.935547 C 12.101562,17.238251 13.869483,19 16.050781,19 18.231979,19 20,17.238251 20,15.064453 20,12.890655 18.231979,11.128906 16.050781,11.128906 Z m 0,1.50586 c 1.345799,0 2.4375,1.088388 2.4375,2.429687 0,1.341199 -1.091701,2.427735 -2.4375,2.427735 -1.345898,-10e-7 -2.4375,-1.086536 -2.4375,-2.427735 0,-1.341299 1.091602,-2.429687 2.4375,-2.429687 z m -15.29492162,1.675781 -0.1015625,0.0059 C 0.28515724,14.366406 0,14.682854 0,15.064453 c 0,0.4162 0.33817979,0.753906 0.75585938,0.753906 H 8.4355469 l 0.1015625,-0.0078 c 0.3691396,-0.0499 0.6542968,-0.364594 0.6542968,-0.746094 0,-0.416299 -0.3381797,-0.753906 -0.7558593,-0.753906 z" />
</svg>
