<svg
   width="32.666687"
   height="32.666622"
   viewBox="0 0 32.666687 32.666622"
   fill="none"
   version="1.1"
   xmlns="http://www.w3.org/2000/svg">
  <path d="m 17.499329,0.333374 c -3.491819,-10e-9 -6.333985,2.8401552 -6.333985,6.3320313 0,3.4918757 2.842171,6.3339847 6.333985,6.3339847 3.491905,0 6.333984,-2.842109 6.333984,-6.3339847 0,-3.4918761 -2.842074,-6.33203131 -6.333984,-6.3320313 z m 0,1 c 2.951477,0 5.333984,2.3806002 5.333984,5.3320313 0,2.9514311 -2.382502,5.3339847 -5.333984,5.3339847 -2.951373,0 -5.333985,-2.3825536 -5.333985,-5.3339847 0,-2.9514311 2.382617,-5.3320313 5.333985,-5.3320313 z m -1.666016,16.5 c -8.5244176,0 -15.5,6.164248 -15.5,13.832031 a 0.5,0.5 0 0 0 0.5,0.5 0.5,0.5 0 0 0 0.5,-0.5 c 0,-7.059788 6.4559715,-12.832031 14.5,-12.832031 a 0.5,0.5 0 0 0 0.5,-0.5 0.5,0.5 0 0 0 -0.5,-0.5 z m 8.207031,2.5 c -2.086775,0 -3.707031,1.941599 -3.707031,4.238281 0,2.038329 1.016096,3.917509 2.269531,5.392578 1.253435,1.475069 2.734193,2.557212 3.882813,3.001953 a 0.50005,0.50005 0 0 0 0.361328,0 c 1.148671,-0.444739 2.629363,-1.526883 3.882812,-3.001953 1.253449,-1.47507 2.269532,-3.354249 2.269532,-5.392578 0,-2.296682 -1.622129,-4.238281 -3.708985,-4.238281 -1.066772,0 -1.956277,0.589116 -2.625,1.392578 -0.668663,-0.80328 -1.558316,-1.392578 -2.625,-1.392578 z m 0,1 c 0.892274,0 1.693017,0.511109 2.197266,1.345703 a 0.50005,0.50005 0 0 0 0.855469,0 c 0.504354,-0.834626 1.305108,-1.345703 2.197265,-1.345703 1.457136,0 2.708985,1.405371 2.708985,3.238281 0,1.700263 -0.87843,3.389445 -2.03125,4.746094 -1.089707,1.282377 -2.404744,2.212396 -3.302735,2.607422 -0.897945,-0.395341 -2.211535,-1.325574 -3.300781,-2.607422 -1.152809,-1.35665 -2.03125,-3.045831 -2.03125,-4.746094 0,-1.83291 1.250013,-3.238281 2.707031,-3.238281 z" />
</svg>
