<?xml version="1.0" encoding="UTF-8" standalone="no"?>
<svg
   width="20"
   height="20"
   viewBox="0 0 20 20"
   fill="none"
   version="1.1"
   xmlns="http://www.w3.org/2000/svg">
  <path
     d="m 17.410156,0 c -1.430098,0 -2.589844,1.1563727 -2.589844,2.5820312 0,1.4256486 1.159746,2.5800782 2.589844,2.5800782 C 18.840255,5.1621094 20,4.0076798 20,2.5820312 20,1.1563727 18.840255,0 17.410156,0 Z M 5.4550781,0.81445312 5.2265625,0.81640625 C 2.0744557,0.92197314 0,3.2311158 0,6.5078125 v 7.8066405 l 0.00390625,0.234375 C 0.10105722,17.788525 2.2276914,20 5.4550781,20 h 8.3359379 l 0.228515,-0.0039 c 3.153297,-0.1052 5.226563,-2.406544 5.226563,-5.681641 V 7.515625 l -0.0059,-0.097656 c -0.0481,-0.3536297 -0.352803,-0.6269532 -0.720703,-0.6269532 -0.401399,0 -0.726562,0.3244698 -0.726562,0.7246094 v 6.798828 l -0.0039,0.224609 c -0.0879,2.446898 -1.617349,4.011719 -3.998046,4.011719 H 5.4550781 l -0.2167969,-0.0039 C 2.8909036,18.453575 1.453125,16.828551 1.453125,14.314453 V 6.5078125 l 0.00391,-0.2246094 C 1.5449912,3.8337456 3.0764605,2.2617187 5.4550781,2.2617188 h 7.0410159 l 0.09961,-0.00586 c 0.3548,-0.04798 0.626953,-0.3519604 0.626953,-0.71875 0,-0.4001296 -0.325163,-0.72265627 -0.726562,-0.72265628 z M 17.410156,1.4492188 c 0.6273,-10e-8 1.136719,0.5074231 1.136719,1.1328124 0,0.6253794 -0.509419,1.1308594 -1.136719,1.1308594 -0.627299,0 -1.134765,-0.50548 -1.134765,-1.1308594 0,-0.6253893 0.507466,-1.1328124 1.134765,-1.1328124 z m -3.330078,5.8105468 c -0.209314,0.00642 -0.414416,0.1033315 -0.552734,0.28125 L 11.136719,10.615234 8.4042969,8.4746094 8.3144531,8.4140625 C 8.0045634,8.2380727 7.603006,8.3131759 7.3789062,8.6035156 l -2.9003906,3.7578124 -0.058594,0.08984 c -0.1725699,0.3085 -0.097784,0.703981 0.1914062,0.925781 l 0.089844,0.05859 c 0.3094097,0.172 0.7071777,0.09689 0.9296875,-0.191406 l 2.453125,-3.177735 2.7304686,2.138672 0.08984,0.06055 c 0.3092,0.1757 0.709094,0.103353 0.933594,-0.185547 l 2.83789,-3.6523436 0.06055,-0.089844 C 14.909928,8.0300209 14.835375,7.6349092 14.546875,7.4121094 14.4081,7.304887 14.242878,7.2547712 14.080078,7.2597656 Z" />
</svg>
