<svg
   width="34.333355"
   height="34.333324"
   viewBox="0 0 34.333355 34.333324"
   fill="none"
   version="1.1"
   xmlns="http://www.w3.org/2000/svg">
  <path d="m 17.49936,0.333374 a 0.5,0.5 0 0 0 -0.5,0.5 0.5,0.5 0 0 0 0.5,0.5 c 8.642805,0 15.628875,6.7849665 16.080078,15.314453 L 28.833344,14.27478 a 0.5,0.5 0 0 0 -0.669922,0.222656 0.5,0.5 0 0 0 0.222656,0.671875 l 5.556641,2.777344 a 0.50005,0.50005 0 0 0 0.722656,-0.447265 c 0,-9.4749409 -7.691017,-17.166016 -17.166015,-17.166016 z M 8.927094,2.7142334 c -3.4261415,0 -6.2148437,2.7886932 -6.2148438,6.2148437 0,3.4261229 2.7887097,6.2128909 6.2148438,6.2128909 3.426097,0 6.214844,-2.786765 6.214844,-6.2128909 0,-3.4261537 -2.788739,-6.2148437 -6.214844,-6.2148437 z m 0,1 c 2.885663,0 5.214844,2.3291301 5.214844,5.2148437 0,2.8856809 -2.329174,5.2128909 -5.214844,5.2128909 -2.8857133,0 -5.2148437,-2.327206 -5.2148438,-5.2128909 0,-2.8857168 2.3291378,-5.2148437 5.2148438,-5.2148437 z M 0.8099065,17.001343 A 0.50005,0.50005 0 0 0 0.333344,17.49939 c 0,9.475 7.6910945,17.166015 17.166016,17.166015 a 0.5,0.5 0 0 0 0.5,-0.5 0.5,0.5 0 0 0 -0.5,-0.5 c -8.6427258,0 -15.6288739,-6.784909 -16.0800785,-15.314453 l 4.7460938,2.373047 A 0.5,0.5 0 0 0 6.8352971,20.501343 0.5,0.5 0 0 0 6.6126409,19.829468 L 1.0560002,17.052124 a 0.50005,0.50005 0 0 0 -0.2460937,-0.05078 z m 25.2597655,2.855468 c -3.426116,0 -6.214844,2.788727 -6.214844,6.214844 0,3.426026 2.788717,6.212891 6.214844,6.212891 3.42622,0 6.214844,-2.786876 6.214844,-6.212891 0,-3.426106 -2.788634,-6.214843 -6.214844,-6.214844 z m 0,1 c 2.885779,0 5.214844,2.329163 5.214844,5.214844 0,2.885572 -2.329075,5.212891 -5.214844,5.212891 -2.885659,0 -5.214844,-2.32733 -5.214844,-5.212891 0,-2.88567 2.329174,-5.214843 5.214844,-5.214844 z" />
</svg>
