<?xml version="1.0" encoding="UTF-8" standalone="no"?>
<svg
   width="18.999998"
   height="20"
   viewBox="0 0 18.999998 20"
   fill="none"
   version="1.1"
   xmlns="http://www.w3.org/2000/svg">
  <path
     d="M 8.8808594,0 C 8.1853008,0 7.5179929,0.27088321 7.0273438,0.75390625 6.5924547,1.1820314 6.3266806,1.7470175 6.2753906,2.3476562 l -0.00781,0.1933594 c -0.00949,0.6317088 -0.5200756,1.12506 -1.1464843,1.125 -0.1420597,-0.00148 -0.2899615,-0.03267 -0.4257813,-0.09375 L 4.5625,3.5019531 C 3.3317024,2.8104145 1.7318642,3.2330399 1.0097656,4.4609375 L 0.359375,5.5078125 C -0.33102562,6.6813501 0.01051919,8.1547441 1.125,8.9140625 l 0.1542969,0.097656 C 1.6613061,9.2285885 1.8789062,9.5989608 1.8789062,10 c 0,0.3688 -0.1837281,0.712775 -0.4921874,0.921875 L 1.28125,10.988281 c -1.15463373,0.6537 -1.60968871,2.096577 -1.02929688,3.296875 l 0.0839844,0.158203 0.63867188,1.078125 c 0.33126942,0.5859 0.89892372,1.027944 1.57031252,1.214844 0.5950788,0.1657 1.2299499,0.121147 1.7929687,-0.126953 l 0.1777344,-0.08789 c 0.2996394,-0.169698 0.6098512,-0.210965 0.9003906,-0.134765 0.2905294,0.0762 0.5381604,0.263831 0.6875,0.519531 0.08234,0.1361 0.1292244,0.276375 0.1464844,0.421875 l 0.00977,0.146484 C 6.2582912,18.848606 7.4319922,20 8.8808594,20 h 1.2363286 c 1.368096,0 2.502281,-1.030477 2.613281,-2.359375 l 0.0078,-0.169922 c -8e-4,-0.3319 0.119485,-0.617925 0.333985,-0.828125 0.214498,-0.2102 0.507147,-0.327572 0.810546,-0.326172 0.139399,0.0039 0.291594,0.03741 0.433594,0.09961 l 0.136719,0.06836 c 1.148398,0.649398 2.652736,0.316507 3.427734,-0.775391 l 0.09961,-0.152343 0.660156,-1.076172 c 0.3551,-0.5971 0.450784,-1.298333 0.271484,-1.957031 -0.158898,-0.5839 -0.522945,-1.093854 -1.027343,-1.439454 l -0.167969,-0.105468 c -0.2902,-0.1644 -0.480594,-0.40696 -0.558594,-0.69336 -0.078,-0.286449 -0.03717,-0.5915266 0.115235,-0.847656 0.0843,-0.1441998 0.197531,-0.2655421 0.332031,-0.3574219 L 17.863281,8.921875 C 18.905179,8.2288664 19.294492,6.8655178 18.746094,5.71875 l -0.05664,-0.1113281 c -0.0123,-0.02912 -0.02677,-0.058459 -0.04297,-0.085937 L 18.033203,4.4785156 C 17.351005,3.318418 15.876382,2.8690179 14.646484,3.4355469 l -0.164062,0.082031 c -0.2939,0.16849 -0.604286,0.2110486 -0.896484,0.1367188 -0.2922,-0.07433 -0.542613,-0.2585425 -0.695313,-0.5136719 -0.0784,-0.1293798 -0.127231,-0.270576 -0.144531,-0.4160156 L 12.738281,2.578125 C 12.759881,1.9501462 12.492245,1.2773949 11.998047,0.77929688 11.503847,0.28120087 10.824234,-2.8610176e-4 10.115234,0 Z m 0,1.4472656 h 1.2363286 c 0.309998,-1.3e-4 0.606465,0.1223042 0.822265,0.3398438 0.2159,0.2175296 0.331166,0.5111937 0.322266,0.8144531 l 0.01367,0.2539063 c 0.0447,0.3852992 0.159397,0.7203649 0.341797,1.0214843 0.349198,0.5834888 0.925656,1.0087379 1.597656,1.1796875 0.671998,0.1709498 1.386175,0.071822 1.984375,-0.2734375 l 0.101562,-0.050781 0.111328,-0.042969 c 0.4884,-0.1605696 1.065199,0.041389 1.341797,0.5117188 l 0.583985,0.9960937 0.01172,0.027344 0.07227,0.1347656 c 0.2366,0.496199 0.03749,1.1225862 -0.474609,1.4160156 L 16.787109,7.875 c -0.340898,0.2320096 -0.60267,0.5124314 -0.792968,0.8378906 -0.3475,0.5844488 -0.442972,1.286574 -0.263672,1.9453124 0.163,0.5989 0.5419,1.116238 1.0625,1.460938 l 0.271484,0.169921 c 0.1921,0.132499 0.350822,0.353624 0.419922,0.607422 0.078,0.2864 0.03511,0.591557 -0.117187,0.847657 l -0.644532,1.050781 -0.07227,0.111328 c -0.2982,0.4191 -0.88486,0.574528 -1.38086,0.361328 l -0.316406,-0.158203 c -0.3524,-0.1553 -0.696575,-0.231034 -1.046875,-0.240234 -0.713898,-0.0036 -1.385608,0.2666 -1.878906,0.75 -0.4934,0.483398 -0.768925,1.138667 -0.765625,1.822265 l -0.0059,0.109375 c -0.0466,0.5512 -0.541373,1.001953 -1.138671,1.001953 H 8.8808594 c -0.5905888,0 -1.0764621,-0.4375 -1.1386719,-1 L 7.7226562,17.199219 C 7.6779663,16.813919 7.561326,16.478934 7.3789062,16.177734 7.0398167,15.596836 6.4681136,15.164181 5.796875,14.988281 5.1256464,14.812281 4.4107057,14.9069 3.8105469,15.25 l -0.109375,0.05273 C 3.4847823,15.397338 3.2091082,15.41615 2.9492188,15.34375 2.6559992,15.26215 2.4075254,15.069792 2.2597656,14.808594 L 1.6308594,13.744141 1.5742188,13.638672 c -0.2383595,-0.4943 -0.040193,-1.121411 0.4726562,-1.41211 l 0.15625,-0.09766 C 2.9350636,11.633311 3.3574219,10.844598 3.3574219,10 3.3574219,9.1429518 2.9211436,8.3467529 2.203125,7.8710938 L 1.9433594,7.7089844 C 1.4826802,7.394395 1.33335,6.7500296 1.6308594,6.2441406 L 2.28125,5.1992188 C 2.6055894,4.6481199 3.3034635,4.463785 3.8515625,4.7714844 l 0.1933594,0.099609 C 4.4042011,5.0337635 4.755902,5.1096414 5.1132812,5.1132812 6.4997086,5.1134612 7.6328683,4.0715549 7.7363281,2.7421875 L 7.75,2.4375 C 7.7703,2.2083004 7.8870923,1.9615302 8.0761719,1.7753906 8.2895015,1.565381 8.57843,1.4472656 8.8808594,1.4472656 Z m 0.6230468,5.2851563 c -1.8422445,0 -3.3359374,1.4626135 -3.3359374,3.2675781 0,1.804994 1.4936929,3.267578 3.3359374,3.267578 1.8422948,0 3.3359378,-1.462584 3.3359378,-3.267578 0,-1.8049646 -1.493643,-3.2675781 -3.3359378,-3.2675781 z m 0,1.4472656 c 1.0261968,0 1.8574218,0.8149155 1.8574218,1.8203125 0,1.005397 -0.831225,1.820312 -1.8574218,1.820312 -1.0261469,0 -1.8593749,-0.814915 -1.859375,-1.820312 0,-1.005397 0.8332281,-1.8203125 1.859375,-1.8203125 z" />
</svg>
