<?xml version="1.0" encoding="UTF-8" standalone="no"?>
<svg
   width="20"
   height="20.000027"
   viewBox="0 0 20 20.000027"
   fill="none"
   version="1.1"
   xmlns="http://www.w3.org/2000/svg">
  <path
     d="m 11.283203,0.00195313 c -0.32696,0.01964106 -0.6444,0.15199422 -0.890625,0.37499999 -0.2241,0.2029498 -0.376327,0.46966906 -0.4355468,0.76171878 L 9.9355469,1.3027344 9.9296875,1.4492188 10.375,7.9726562 c 0.0554,0.8316092 0.786873,1.4660988 1.638672,1.4179688 l 6.644531,-0.4335938 c 0.3889,-0.02812 0.745694,-0.2045946 0.996094,-0.4902343 0.1993,-0.2274598 0.31975,-0.5109341 0.34375,-0.8085938 L 20,7.4570312 19.990234,7.3417969 C 19.302735,3.202581 15.709324,0.12317167 11.423828,0.00195313 c -0.04695,-0.001805182 -0.09392,-0.002805872 -0.140625,0 z m 0.128906,1.44726567 0.216797,0.00977 c 3.383197,0.2051098 6.203823,2.6216832 6.857422,5.875 l 0.03125,0.1796875 -6.595703,0.4316406 c -0.0334,0.00186 -0.06771,-0.027356 -0.07031,-0.066406 z M 7.0507812,3.8300781 c -0.08891,-0.00214 -0.1794563,0.00331 -0.2695312,0.015625 L 6.6445312,3.8671875 6.3886719,3.9238281 C 2.6621456,4.8035172 0.01419085,8.0661544 0.00390625,11.837891 L 0,12.080078 c 0.00319023,0.2462 0.02528179,0.50206 0.06640625,0.75586 l 0.046875,0.339843 c 0.14798085,0.902899 0.46979498,1.794076 0.94531255,2.609375 1.7782982,3.162597 5.4856429,4.804284 9.0996092,4.021485 3.613997,-0.7828 6.267725,-3.80352 6.515625,-7.416016 0.0024,-0.4908 -0.183872,-0.91435 -0.513672,-1.21875 -0.329899,-0.3044 -0.773963,-0.462147 -1.226562,-0.435547 l -5.574219,0.335938 -0.060547,-0.002 c -0.05993,-0.0067 -0.1145731,-0.02931 -0.1582031,-0.06641 -0.05816,-0.0494 -0.094399,-0.120112 -0.099609,-0.195312 L 8.6523438,5.3203125 C 8.6371938,5.1232127 8.5857368,4.9340155 8.4980469,4.7597656 8.2471059,4.2032049 7.6731486,3.8450783 7.0507812,3.8300781 Z M 7.015625,5.2773438 c 0.06005,0.00318 0.115305,0.039663 0.140625,0.095703 0.01703,0.03523 0.020784,0.043644 0.021484,0.052734 l 0.3867187,5.4843748 c 0.03162,0.4569 0.2499991,0.885501 0.6054688,1.1875 0.3554596,0.3021 0.8194029,0.453322 1.2890625,0.419922 l 5.5644536,-0.335937 0.04492,0.0039 c 0.0284,0.0061 0.05437,0.01896 0.07617,0.03906 0.0328,0.0302 0.05088,0.07319 0.05078,0.117188 -0.202199,2.923897 -2.383171,5.406982 -5.3554682,6.050781 C 6.8675367,19.036377 3.8167879,17.687222 2.3496094,15.078125 1.9084198,14.321526 1.632553,13.494824 1.5332031,12.640625 L 1.5058594,12.4375 c -0.02249,-0.1986 -0.030548,-0.385866 -0.023437,-0.572266 l 0.00586,-0.24414 C 1.6065211,8.6103968 3.734698,6.055293 6.703125,5.3398438 l 0.2285156,-0.052734 z" />
</svg>
